<svg version="1.1" id="Layer_1" xmlns="http://www.w3.org/2000/svg" xmlns:xlink="http://www.w3.org/1999/xlink" x="0px" y="0px"
	 width="100%" viewBox="0 0 576 537" enable-background="new 0 0 576 537" xml:space="preserve">
<path fill="#000000" opacity="1.000000" stroke="none" 
	d="
M391.000000,538.000000 
	C260.666656,538.000000 130.833328,538.000000 1.000000,538.000000 
	C1.000000,359.000000 1.000000,180.000000 1.000000,1.000000 
	C193.000000,1.000000 385.000000,1.000000 577.000000,1.000000 
	C577.000000,180.000000 577.000000,359.000000 577.000000,538.000000 
	C515.166687,538.000000 453.333344,538.000000 391.000000,538.000000 
M378.322998,226.429230 
	C378.809509,225.608459 379.296051,224.787689 380.112549,223.445709 
	C380.390594,222.911636 380.668610,222.377563 381.430664,221.510727 
	C381.926910,221.209595 382.423187,220.908463 383.866302,220.633377 
	C396.359192,220.634888 408.853271,220.730377 421.344116,220.570267 
	C424.378845,220.531357 426.215942,221.298660 427.556763,224.181961 
	C429.658386,228.701355 432.399323,232.921585 434.542145,237.424332 
	C436.016846,240.523178 437.919983,241.823074 441.482635,241.648560 
	C447.905884,241.333908 454.355591,241.559586 460.475922,241.559586 
	C461.319733,243.815521 461.800293,245.420792 462.502045,246.922760 
	C466.162720,254.758316 474.716339,258.961578 483.264740,257.187683 
	C491.138092,255.553864 497.353088,248.340729 497.883087,240.221527 
	C498.430542,231.835709 493.193970,224.213272 485.018372,221.495453 
	C476.952606,218.814178 466.847534,221.434418 463.994537,229.227264 
	C461.041870,237.292358 455.829987,236.694489 449.784943,236.526581 
	C447.620850,236.466431 445.357117,236.888824 443.317535,236.377762 
	C441.506348,235.923904 439.316833,234.877502 438.386444,233.403366 
	C435.551422,228.911545 433.157776,224.130096 430.765350,219.374359 
	C429.449036,216.757782 428.022369,215.680695 424.675201,215.773636 
	C411.404663,216.142120 398.111511,216.135117 384.840851,215.764084 
	C381.373108,215.667130 378.932312,215.906296 377.153625,219.076096 
	C375.341034,222.306274 373.092651,225.301163 371.402222,228.587891 
	C369.882111,231.543427 367.772797,232.294281 364.573730,232.277847 
	C343.085297,232.167450 321.595825,232.259140 299.987366,231.318420 
	C300.026550,223.482788 300.065704,215.647171 301.025177,207.827301 
	C313.191620,207.832520 325.360901,207.692444 337.522797,207.930786 
	C341.210175,208.003052 343.337677,206.757751 345.017181,203.575058 
	C347.580536,198.717331 350.408081,193.985016 353.385834,189.368683 
	C354.252747,188.024750 356.004669,186.372803 357.366089,186.359009 
	C376.670044,186.163422 395.976593,186.225830 415.135162,186.225830 
	C420.480591,199.069839 427.659546,203.910416 438.055206,201.931091 
	C446.423920,200.337692 452.909760,192.283157 452.829163,183.583832 
	C452.746887,174.703308 446.133728,166.987473 437.217041,165.368561 
	C427.600403,163.622589 419.868164,169.077942 415.257355,181.120743 
	C413.247803,181.120743 411.099274,181.121078 408.950745,181.120697 
	C391.617615,181.117722 374.283875,181.191483 356.951935,181.045609 
	C353.550812,181.016998 351.368195,181.958740 349.754211,185.076584 
	C347.383331,189.656601 344.388977,193.914474 342.028992,198.499374 
	C340.375977,201.710739 338.297791,202.937607 334.600739,202.858337 
	C323.106293,202.611832 311.602936,202.781036 299.982666,201.758682 
	C299.982666,189.182724 299.982666,176.606750 299.982666,164.082886 
	C239.198013,164.082886 179.169434,164.082886 119.162811,164.082886 
	C119.162811,224.859253 119.162811,285.221710 119.162811,345.444214 
	C179.602234,345.444214 239.647827,345.444214 300.105652,345.444214 
	C300.105652,329.403625 300.105652,313.754608 301.027405,298.114624 
	C319.686157,298.118042 338.344971,298.099884 357.003662,298.136749 
	C363.319397,298.149261 370.714996,296.290771 375.652344,298.943787 
	C380.781921,301.700043 383.534698,308.880310 387.324554,314.127625 
	C387.616974,314.532471 387.941223,314.925171 388.165253,315.366821 
	C389.631653,318.257660 391.967804,319.033997 395.146057,318.975006 
	C404.958649,318.792847 414.776764,318.908508 424.467865,318.908508 
	C429.875885,331.489502 437.017700,336.410797 446.940369,334.594604 
	C455.284576,333.067352 461.762512,325.522247 462.025513,317.024231 
	C462.298920,308.190155 456.361511,299.943115 447.820465,298.316467 
	C436.088806,296.082153 428.567200,301.218048 424.133545,313.854279 
	C421.007507,313.854279 417.843781,313.879395 414.680603,313.849152 
	C407.695435,313.782349 399.594482,315.854462 394.040131,312.993591 
	C388.509705,310.145081 385.385315,302.434265 381.507751,296.653015 
	C379.726776,293.997711 377.793518,292.977295 374.570099,292.995850 
	C349.748413,293.138519 324.925629,293.088684 299.949432,292.159790 
	C300.002228,284.516205 300.055054,276.872650 301.026215,269.236786 
	C325.672394,269.240906 350.319092,269.324829 374.964203,269.165009 
	C378.758850,269.140411 380.789886,269.865967 382.162109,273.857697 
	C384.686462,281.200897 391.865082,285.384369 399.824707,285.172424 
	C407.283783,284.973755 414.052856,280.074554 416.576355,273.048065 
	C419.156403,265.864197 417.312866,258.042084 411.489380,253.037659 
	C404.335785,246.890259 386.576080,246.790649 381.993256,259.534668 
	C381.448944,261.048370 380.857483,262.545105 380.235565,264.187836 
	C353.369995,264.187836 326.736816,264.187836 299.949585,263.237732 
	C299.998077,254.578079 300.046570,245.918411 301.012909,237.322510 
	C323.222412,237.344604 345.432007,237.392502 367.641296,237.331757 
	C369.147614,237.327637 370.651672,236.506546 372.752472,235.783905 
	C373.860535,233.896698 374.968567,232.009476 376.418091,229.595200 
	C376.899384,228.710678 377.380676,227.826157 377.933594,226.929962 
	C377.933594,226.929962 377.917114,226.859314 378.322998,226.429230 
M234.313889,376.555420 
	C234.313889,381.642578 234.313889,386.729767 234.313889,392.006744 
	C241.658310,391.804382 249.059784,393.935608 253.206558,386.285950 
	C255.929565,381.262787 255.843094,375.895935 252.386688,371.231903 
	C247.681091,364.882233 240.896927,367.273254 234.313919,367.073944 
	C234.313919,370.309204 234.313919,372.944092 234.313889,376.555420 
M227.009796,379.495239 
	C226.540344,370.752289 222.844772,366.883972 215.032791,366.958313 
	C207.863708,367.026550 203.964035,371.045563 203.762970,378.572998 
	C203.543167,386.802002 207.078934,391.597168 213.684677,392.028625 
	C222.039001,392.574249 226.082489,389.030914 227.009796,379.495239 
M286.378479,389.238373 
	C291.360535,393.195801 297.380585,393.307251 302.316315,390.788788 
	C304.195770,389.829742 303.481964,383.767059 303.905884,380.025391 
	C303.933899,379.778198 303.584869,379.488281 303.483459,379.330566 
	C300.666656,379.330566 297.946960,379.330566 295.227264,379.330566 
	C295.097656,379.800629 294.968048,380.270721 294.838440,380.740784 
	C296.693420,381.341064 298.548431,381.941345 300.490448,382.569794 
	C300.490448,384.560333 300.490448,386.612335 300.490448,388.624420 
	C292.145905,389.675201 288.154510,388.590729 287.252869,383.890442 
	C286.593414,380.452576 286.956635,376.175446 288.515717,373.113403 
	C290.593201,369.033234 295.263458,369.760590 299.315430,370.149567 
	C300.578186,370.270782 301.890625,369.874329 303.180359,369.714874 
	C303.124298,369.261658 303.068268,368.808472 303.012238,368.355255 
	C296.080841,365.602356 289.298767,366.665009 285.564301,371.088989 
	C281.800110,375.548187 281.911194,382.680603 286.378479,389.238373 
M328.355316,390.052307 
	C329.267517,388.509216 330.885406,387.002289 330.966583,385.416656 
	C331.276611,379.360962 331.091858,373.279968 331.091858,367.208405 
	C330.587677,367.036835 330.083527,366.865234 329.579346,366.693665 
	C329.067047,367.760040 328.161407,368.808838 328.112854,369.895935 
	C327.934692,373.886047 327.980560,377.890045 328.057220,381.886627 
	C328.138794,386.139587 326.847900,389.056763 321.943024,389.086182 
	C317.081635,389.115295 315.281342,387.340790 315.205536,381.995850 
	C315.135681,377.069153 315.190704,372.140656 315.190704,367.212952 
	C314.657104,367.019897 314.123505,366.826874 313.589905,366.633820 
	C313.015808,367.652954 312.005493,368.647522 311.946472,369.695648 
	C311.740784,373.349030 312.191986,377.056488 311.798889,380.678894 
	C310.781311,390.056732 317.928467,394.870361 328.355316,390.052307 
M340.041443,382.447021 
	C340.041443,391.381500 340.041443,391.381500 343.260620,391.638763 
	C343.260620,388.526703 343.260620,385.441925 343.260620,382.528595 
	C348.085541,380.418823 349.223358,383.957520 351.058105,386.674042 
	C352.593964,388.947998 352.805481,393.253845 357.649475,391.589142 
	C355.620972,388.058167 353.658630,384.642365 351.515411,380.911743 
	C356.167511,378.461700 357.692017,374.479034 355.218475,370.444519 
	C351.605988,364.552216 345.509125,367.664886 340.041443,366.934967 
	C340.041443,372.220215 340.041443,376.843750 340.041443,382.447021 
M380.342010,367.220825 
	C380.180786,372.503296 380.044098,377.786713 379.850250,383.067963 
	C379.704224,387.047546 377.777954,389.099976 373.604889,389.111938 
	C369.292328,389.124298 367.066040,387.205170 367.024506,382.889954 
	C366.982941,378.571381 367.111145,374.248230 366.942078,369.935822 
	C366.899261,368.843842 366.008118,367.785095 365.506805,366.711090 
	C364.991577,366.869720 364.476379,367.028351 363.961182,367.186981 
	C363.961182,372.464905 363.969849,377.742859 363.958832,383.020752 
	C363.946655,388.854401 366.846039,391.866882 372.658966,392.033539 
	C379.225555,392.221832 382.857758,389.382416 383.119751,383.509888 
	C383.326874,378.867767 383.274292,374.205597 383.091644,369.561981 
	C383.057251,368.688293 381.866211,367.860138 380.342010,367.220825 
M262.313904,373.644684 
	C262.313904,379.711517 262.313904,385.778381 262.313904,391.681702 
	C267.677673,391.681702 272.225830,391.681702 276.773987,391.681702 
	C276.865784,391.079468 276.957581,390.477203 277.049377,389.874969 
	C273.413116,389.431641 269.776855,388.988312 266.260223,388.559570 
	C266.260223,385.972473 266.260223,383.577698 266.260223,381.588379 
	C269.443848,379.635071 273.808929,383.010223 276.623779,378.193512 
	C272.494446,377.995331 269.263336,377.840240 266.148102,377.690735 
	C266.148102,374.955353 266.148102,372.678925 266.148102,370.554138 
	C269.548767,368.539886 274.281738,372.098145 277.675354,367.193665 
	C272.064728,367.193665 267.477905,367.193665 262.313934,367.193665 
	C262.313934,369.123993 262.313934,370.906158 262.313904,373.644684 
M390.780182,372.675873 
	C390.397583,376.448120 392.504517,378.560913 395.661926,379.944061 
	C397.334961,380.676941 399.274811,381.047363 400.647491,382.141785 
	C401.758423,383.027466 402.962036,384.905579 402.727631,386.059723 
	C402.491058,387.224609 400.607025,388.731506 399.316010,388.867706 
	C396.445862,389.170410 393.495239,388.710175 389.371307,388.499237 
	C390.771423,390.014404 391.541016,391.599396 392.419495,391.662262 
	C395.527527,391.884521 398.883453,392.215637 401.729431,391.262878 
	C403.607635,390.634155 405.870209,387.932617 405.967224,386.056091 
	C406.077332,383.926453 404.356262,381.295929 402.695679,379.605957 
	C401.299835,378.185364 398.637817,378.093719 396.933838,376.863251 
	C395.649292,375.935638 394.125793,374.004761 394.315277,372.766266 
	C394.485626,371.652863 396.739166,370.436615 398.266266,370.072021 
	C399.765106,369.714142 401.516388,370.581360 403.137604,370.504486 
	C404.087494,370.459412 404.999725,369.620148 406.456879,368.864227 
	C398.417938,365.248840 393.591583,366.392151 390.780182,372.675873 
M190.655945,369.944153 
	C193.144592,369.944153 195.633240,369.944153 198.121902,369.944153 
	C192.645645,365.779877 186.069153,366.463440 182.426178,370.204163 
	C178.756577,373.972260 177.917313,381.543488 180.610229,386.586426 
	C183.059845,391.173737 187.950195,393.148346 194.460327,391.908813 
	C195.550980,391.701111 196.453552,390.505524 197.443024,389.766388 
	C186.963181,389.329712 183.894348,387.856262 182.987030,382.314484 
	C181.882736,375.569672 183.951675,371.844727 190.655945,369.944153 
z"/>
<path fill="#7D36E0" opacity="1.000000" stroke="none" 
	d="
M300.095062,237.258759 
	C300.046570,245.918411 299.998077,254.578079 299.975128,264.073242 
	C300.036407,266.348846 300.072144,267.788971 300.107849,269.229065 
	C300.055054,276.872650 300.002228,284.516205 299.957947,293.043823 
	C300.012848,295.320404 300.059235,296.713013 300.105652,298.105591 
	C300.105652,313.754608 300.105652,329.403625 300.105652,345.444214 
	C239.647827,345.444214 179.602234,345.444214 119.162811,345.444214 
	C119.162811,285.221710 119.162811,224.859253 119.162811,164.082886 
	C179.169434,164.082886 239.198013,164.082886 299.982666,164.082886 
	C299.982666,176.606750 299.982666,189.182724 299.957397,202.623260 
	C299.989716,204.929077 300.047302,206.370316 300.104889,207.811539 
	C300.065704,215.647171 300.026550,223.482788 299.992676,232.174057 
	C300.025635,234.025055 300.053284,235.020416 300.053528,236.222366 
	C300.071106,236.703720 300.094086,236.980331 300.095062,237.258759 
M201.322266,343.694366 
	C203.457092,343.636993 205.591919,343.579651 208.613358,343.676331 
	C209.805695,343.618866 210.998032,343.561401 212.533997,343.645386 
	C212.533997,343.645386 212.903748,343.682312 213.728607,343.894470 
	C215.140121,343.876221 216.551651,343.857971 218.659180,343.892426 
	C219.542908,343.648865 220.426636,343.405304 221.962173,343.592010 
	C247.146515,343.592010 272.330841,343.592010 297.682556,343.592010 
	C297.682556,316.949554 297.682556,291.033569 297.828888,264.352325 
	C297.496887,262.564606 297.164856,260.776855 296.951294,258.086182 
	C297.197083,253.027237 297.442871,247.968307 297.765869,241.986649 
	C297.765869,216.758209 297.765869,191.529770 297.765869,165.996292 
	C271.446472,165.996292 245.704803,165.996292 219.042465,165.846558 
	C211.068237,166.181335 203.094025,166.516098 194.617935,166.129913 
	C170.365829,166.090195 146.113708,166.048569 121.861588,166.037567 
	C121.619598,166.037460 121.377426,166.442139 120.925964,166.844391 
	C120.925964,189.753540 120.917755,212.846100 120.965385,235.938538 
	C120.966827,236.635712 121.551819,237.331680 121.856163,238.862259 
	C121.604774,246.574081 121.353394,254.285919 121.015152,262.844574 
	C121.301178,265.550537 121.587212,268.256500 121.152290,271.441101 
	C121.152290,295.357300 121.152290,319.273499 121.152290,343.627808 
	C144.943069,343.627808 168.384827,343.627808 192.679504,343.846954 
	C195.237610,343.792389 197.795715,343.737854 201.322266,343.694366 
z"/>
<path fill="#6BD0D6" opacity="1.000000" stroke="none" 
	d="
M300.080933,236.015778 
	C300.053284,235.020416 300.025635,234.025055 300.052307,232.657501 
	C321.595825,232.259140 343.085297,232.167450 364.573730,232.277847 
	C367.772797,232.294281 369.882111,231.543427 371.402222,228.587891 
	C373.092651,225.301163 375.341034,222.306274 377.153625,219.076096 
	C378.932312,215.906296 381.373108,215.667130 384.840851,215.764084 
	C398.111511,216.135117 411.404663,216.142120 424.675201,215.773636 
	C428.022369,215.680695 429.449036,216.757782 430.765350,219.374359 
	C433.157776,224.130096 435.551422,228.911545 438.386444,233.403366 
	C439.316833,234.877502 441.506348,235.923904 443.317535,236.377762 
	C445.357117,236.888824 447.620850,236.466431 449.784943,236.526581 
	C455.829987,236.694489 461.041870,237.292358 463.994537,229.227264 
	C466.847534,221.434418 476.952606,218.814178 485.018372,221.495453 
	C493.193970,224.213272 498.430542,231.835709 497.883087,240.221527 
	C497.353088,248.340729 491.138092,255.553864 483.264740,257.187683 
	C474.716339,258.961578 466.162720,254.758316 462.502045,246.922760 
	C461.800293,245.420792 461.319733,243.815521 460.475922,241.559586 
	C454.355591,241.559586 447.905884,241.333908 441.482635,241.648560 
	C437.919983,241.823074 436.016846,240.523178 434.542145,237.424332 
	C432.399323,232.921585 429.658386,228.701355 427.556763,224.181961 
	C426.215942,221.298660 424.378845,220.531357 421.344116,220.570267 
	C408.853271,220.730377 396.359192,220.634888 383.175385,220.480499 
	C381.971863,220.832901 381.459229,221.338196 380.946625,221.843491 
	C380.668610,222.377563 380.390594,222.911636 379.657440,223.824158 
	C378.773926,225.088165 378.345520,225.973740 377.917114,226.859314 
	C377.917114,226.859314 377.933594,226.929962 377.585938,227.067566 
	C376.851074,228.177536 376.463837,229.149887 376.076599,230.122253 
	C374.968567,232.009476 373.860535,233.896698 371.976349,235.904449 
	C347.493805,236.021912 323.787354,236.018845 300.080933,236.015778 
M479.474731,252.253891 
	C480.925415,251.939560 482.434265,251.785599 483.816895,251.283722 
	C490.519073,248.850998 494.082458,241.942337 492.161194,235.283722 
	C490.169403,228.380936 483.425598,224.380447 476.212280,225.822723 
	C469.564667,227.151886 465.059387,233.760437 466.011017,240.786438 
	C466.834015,246.862946 471.115753,250.747528 479.474731,252.253891 
z"/>
<path fill="#6BD0D6" opacity="1.000000" stroke="none" 
	d="
M300.565033,207.819427 
	C300.047302,206.370316 299.989716,204.929077 300.017609,203.138428 
	C311.602936,202.781036 323.106293,202.611832 334.600739,202.858337 
	C338.297791,202.937607 340.375977,201.710739 342.028992,198.499374 
	C344.388977,193.914474 347.383331,189.656601 349.754211,185.076584 
	C351.368195,181.958740 353.550812,181.016998 356.951935,181.045609 
	C374.283875,181.191483 391.617615,181.117722 408.950745,181.120697 
	C411.099274,181.121078 413.247803,181.120743 415.257355,181.120743 
	C419.868164,169.077942 427.600403,163.622589 437.217041,165.368561 
	C446.133728,166.987473 452.746887,174.703308 452.829163,183.583832 
	C452.909760,192.283157 446.423920,200.337692 438.055206,201.931091 
	C427.659546,203.910416 420.480591,199.069839 415.135162,186.225830 
	C395.976593,186.225830 376.670044,186.163422 357.366089,186.359009 
	C356.004669,186.372803 354.252747,188.024750 353.385834,189.368683 
	C350.408081,193.985016 347.580536,198.717331 345.017181,203.575058 
	C343.337677,206.757751 341.210175,208.003052 337.522797,207.930786 
	C325.360901,207.692444 313.191620,207.832520 300.565033,207.819427 
M446.208160,177.829041 
	C442.124420,171.424820 436.993134,169.038544 430.861542,170.692215 
	C424.940582,172.289078 421.115448,176.912201 420.845581,182.797516 
	C420.559021,189.048233 423.922943,194.261978 429.755768,196.249451 
	C434.691833,197.931396 439.288330,197.094711 443.147430,193.521606 
	C447.645844,189.356689 448.514832,184.230011 446.208160,177.829041 
z"/>
<path fill="#6CD2D7" opacity="1.000000" stroke="none" 
	d="
M300.566528,298.110107 
	C300.059235,296.713013 300.012848,295.320404 300.034821,293.513214 
	C324.925629,293.088684 349.748413,293.138519 374.570099,292.995850 
	C377.793518,292.977295 379.726776,293.997711 381.507751,296.653015 
	C385.385315,302.434265 388.509705,310.145081 394.040131,312.993591 
	C399.594482,315.854462 407.695435,313.782349 414.680603,313.849152 
	C417.843781,313.879395 421.007507,313.854279 424.133545,313.854279 
	C428.567200,301.218048 436.088806,296.082153 447.820465,298.316467 
	C456.361511,299.943115 462.298920,308.190155 462.025513,317.024231 
	C461.762512,325.522247 455.284576,333.067352 446.940369,334.594604 
	C437.017700,336.410797 429.875885,331.489502 424.467865,318.908508 
	C414.776764,318.908508 404.958649,318.792847 395.146057,318.975006 
	C391.967804,319.033997 389.631653,318.257660 388.165253,315.366821 
	C387.941223,314.925171 387.616974,314.532471 387.324554,314.127625 
	C383.534698,308.880310 380.781921,301.700043 375.652344,298.943787 
	C370.714996,296.290771 363.319397,298.149261 357.003662,298.136749 
	C338.344971,298.099884 319.686157,298.118042 300.566528,298.110107 
M455.399231,310.427063 
	C451.409149,304.313538 446.441528,301.910645 440.426575,303.184631 
	C435.300049,304.270447 430.890594,308.917725 430.088135,314.080811 
	C429.212952,319.711945 431.797058,325.062256 436.790741,327.958252 
	C441.543579,330.714661 447.433014,330.343475 451.673065,326.759766 
	C456.652649,322.550934 458.005463,317.264465 455.399231,310.427063 
z"/>
<path fill="#6BD0D6" opacity="1.000000" stroke="none" 
	d="
M300.567017,269.232910 
	C300.072144,267.788971 300.036407,266.348846 300.052155,264.548279 
	C326.736816,264.187836 353.369995,264.187836 380.235565,264.187836 
	C380.857483,262.545105 381.448944,261.048370 381.993256,259.534668 
	C386.576080,246.790649 404.335785,246.890259 411.489380,253.037659 
	C417.312866,258.042084 419.156403,265.864197 416.576355,273.048065 
	C414.052856,280.074554 407.283783,284.973755 399.824707,285.172424 
	C391.865082,285.384369 384.686462,281.200897 382.162109,273.857697 
	C380.789886,269.865967 378.758850,269.140411 374.964203,269.165009 
	C350.319092,269.324829 325.672394,269.240906 300.567017,269.232910 
M407.363312,256.103882 
	C399.875885,251.553574 392.501678,252.686539 388.084839,259.065796 
	C384.151154,264.747131 385.244080,272.624298 390.573334,277.001678 
	C396.153259,281.584930 404.093719,281.006256 408.953979,275.662170 
	C413.943207,270.176270 413.547363,262.489258 407.363312,256.103882 
z"/>
<path fill="#58C5CC" opacity="1.000000" stroke="none" 
	d="
M234.313904,376.067200 
	C234.313919,372.944092 234.313919,370.309204 234.313919,367.073944 
	C240.896927,367.273254 247.681091,364.882233 252.386688,371.231903 
	C255.843094,375.895935 255.929565,381.262787 253.206558,386.285950 
	C249.059784,393.935608 241.658310,391.804382 234.313889,392.006744 
	C234.313889,386.729767 234.313889,381.642578 234.313904,376.067200 
M249.494354,385.770813 
	C251.841385,381.518677 252.109558,377.072540 249.456284,373.043976 
	C246.737350,368.915771 242.348694,369.903473 238.160843,370.154785 
	C238.160843,376.564728 238.160843,382.621796 238.160843,390.124207 
	C242.199707,388.731689 245.586075,387.564178 249.494354,385.770813 
z"/>
<path fill="#5CCFD4" opacity="1.000000" stroke="none" 
	d="
M227.008820,379.924377 
	C226.082489,389.030914 222.039001,392.574249 213.684677,392.028625 
	C207.078934,391.597168 203.543167,386.802002 203.762970,378.572998 
	C203.964035,371.045563 207.863708,367.026550 215.032791,366.958313 
	C222.844772,366.883972 226.540344,370.752289 227.008820,379.924377 
M220.818344,371.651947 
	C215.883179,368.939270 211.254700,369.397217 208.837952,372.837341 
	C206.131271,376.690186 206.592728,384.218414 209.720566,387.235687 
	C213.640640,391.017181 221.792648,389.380768 222.648041,384.144989 
	C223.266418,380.360077 221.862396,376.244751 220.818344,371.651947 
z"/>
<path fill="#5CD2D8" opacity="1.000000" stroke="none" 
	d="
M286.108582,388.971680 
	C281.911194,382.680603 281.800110,375.548187 285.564301,371.088989 
	C289.298767,366.665009 296.080841,365.602356 303.012238,368.355255 
	C303.068268,368.808472 303.124298,369.261658 303.180359,369.714874 
	C301.890625,369.874329 300.578186,370.270782 299.315430,370.149567 
	C295.263458,369.760590 290.593201,369.033234 288.515717,373.113403 
	C286.956635,376.175446 286.593414,380.452576 287.252869,383.890442 
	C288.154510,388.590729 292.145905,389.675201 300.490448,388.624420 
	C300.490448,386.612335 300.490448,384.560333 300.490448,382.569794 
	C298.548431,381.941345 296.693420,381.341064 294.838440,380.740784 
	C294.968048,380.270721 295.097656,379.800629 295.227264,379.330566 
	C297.946960,379.330566 300.666656,379.330566 303.483459,379.330566 
	C303.584869,379.488281 303.933899,379.778198 303.905884,380.025391 
	C303.481964,383.767059 304.195770,389.829742 302.316315,390.788788 
	C297.380585,393.307251 291.360535,393.195801 286.108582,388.971680 
z"/>
<path fill="#5CD2D8" opacity="1.000000" stroke="none" 
	d="
M328.046783,390.300812 
	C317.928467,394.870361 310.781311,390.056732 311.798889,380.678894 
	C312.191986,377.056488 311.740784,373.349030 311.946472,369.695648 
	C312.005493,368.647522 313.015808,367.652954 313.589905,366.633820 
	C314.123505,366.826874 314.657104,367.019897 315.190704,367.212952 
	C315.190704,372.140656 315.135681,377.069153 315.205536,381.995850 
	C315.281342,387.340790 317.081635,389.115295 321.943024,389.086182 
	C326.847900,389.056763 328.138794,386.139587 328.057220,381.886627 
	C327.980560,377.890045 327.934692,373.886047 328.112854,369.895935 
	C328.161407,368.808838 329.067047,367.760040 329.579346,366.693665 
	C330.083527,366.865234 330.587677,367.036835 331.091858,367.208405 
	C331.091858,373.279968 331.276611,379.360962 330.966583,385.416656 
	C330.885406,387.002289 329.267517,388.509216 328.046783,390.300812 
z"/>
<path fill="#5CD2D8" opacity="1.000000" stroke="none" 
	d="
M340.041443,381.957153 
	C340.041443,376.843750 340.041443,372.220215 340.041443,366.934967 
	C345.509125,367.664886 351.605988,364.552216 355.218475,370.444519 
	C357.692017,374.479034 356.167511,378.461700 351.515411,380.911743 
	C353.658630,384.642365 355.620972,388.058167 357.649475,391.589142 
	C352.805481,393.253845 352.593964,388.947998 351.058105,386.674042 
	C349.223358,383.957520 348.085541,380.418823 343.260620,382.528595 
	C343.260620,385.441925 343.260620,388.526703 343.260620,391.638763 
	C340.041443,391.381500 340.041443,391.381500 340.041443,381.957153 
M348.011078,378.908234 
	C351.492432,378.263184 353.723083,376.298676 352.398926,372.716888 
	C350.707336,368.141205 346.746826,370.336121 343.456482,370.134033 
	C343.456482,373.257629 343.456482,375.986267 343.456482,378.968658 
	C344.882965,378.968658 346.026398,378.968658 348.011078,378.908234 
z"/>
<path fill="#5CD2D8" opacity="1.000000" stroke="none" 
	d="
M380.775452,367.115906 
	C381.866211,367.860138 383.057251,368.688293 383.091644,369.561981 
	C383.274292,374.205597 383.326874,378.867767 383.119751,383.509888 
	C382.857758,389.382416 379.225555,392.221832 372.658966,392.033539 
	C366.846039,391.866882 363.946655,388.854401 363.958832,383.020752 
	C363.969849,377.742859 363.961182,372.464905 363.961182,367.186981 
	C364.476379,367.028351 364.991577,366.869720 365.506805,366.711090 
	C366.008118,367.785095 366.899261,368.843842 366.942078,369.935822 
	C367.111145,374.248230 366.982941,378.571381 367.024506,382.889954 
	C367.066040,387.205170 369.292328,389.124298 373.604889,389.111938 
	C377.777954,389.099976 379.704224,387.047546 379.850250,383.067963 
	C380.044098,377.786713 380.180786,372.503296 380.775452,367.115906 
z"/>
<path fill="#58C5CC" opacity="1.000000" stroke="none" 
	d="
M262.313904,373.166504 
	C262.313934,370.906158 262.313934,369.123993 262.313934,367.193665 
	C267.477905,367.193665 272.064728,367.193665 277.675354,367.193665 
	C274.281738,372.098145 269.548767,368.539886 266.148102,370.554138 
	C266.148102,372.678925 266.148102,374.955353 266.148102,377.690735 
	C269.263336,377.840240 272.494446,377.995331 276.623779,378.193512 
	C273.808929,383.010223 269.443848,379.635071 266.260223,381.588379 
	C266.260223,383.577698 266.260223,385.972473 266.260223,388.559570 
	C269.776855,388.988312 273.413116,389.431641 277.049377,389.874969 
	C276.957581,390.477203 276.865784,391.079468 276.773987,391.681702 
	C272.225830,391.681702 267.677673,391.681702 262.313904,391.681702 
	C262.313904,385.778381 262.313904,379.711517 262.313904,373.166504 
z"/>
<path fill="#5CCFD4" opacity="1.000000" stroke="none" 
	d="
M390.810455,372.317566 
	C393.591583,366.392151 398.417938,365.248840 406.456879,368.864227 
	C404.999725,369.620148 404.087494,370.459412 403.137604,370.504486 
	C401.516388,370.581360 399.765106,369.714142 398.266266,370.072021 
	C396.739166,370.436615 394.485626,371.652863 394.315277,372.766266 
	C394.125793,374.004761 395.649292,375.935638 396.933838,376.863251 
	C398.637817,378.093719 401.299835,378.185364 402.695679,379.605957 
	C404.356262,381.295929 406.077332,383.926453 405.967224,386.056091 
	C405.870209,387.932617 403.607635,390.634155 401.729431,391.262878 
	C398.883453,392.215637 395.527527,391.884521 392.419495,391.662262 
	C391.541016,391.599396 390.771423,390.014404 389.371307,388.499237 
	C393.495239,388.710175 396.445862,389.170410 399.316010,388.867706 
	C400.607025,388.731506 402.491058,387.224609 402.727631,386.059723 
	C402.962036,384.905579 401.758423,383.027466 400.647491,382.141785 
	C399.274811,381.047363 397.334961,380.676941 395.661926,379.944061 
	C392.504517,378.560913 390.397583,376.448120 390.810455,372.317566 
z"/>
<path fill="#5CCFD4" opacity="1.000000" stroke="none" 
	d="
M190.245346,369.964905 
	C183.951675,371.844727 181.882736,375.569672 182.987030,382.314484 
	C183.894348,387.856262 186.963181,389.329712 197.443024,389.766388 
	C196.453552,390.505524 195.550980,391.701111 194.460327,391.908813 
	C187.950195,393.148346 183.059845,391.173737 180.610229,386.586426 
	C177.917313,381.543488 178.756577,373.972260 182.426178,370.204163 
	C186.069153,366.463440 192.645645,365.779877 198.121902,369.944153 
	C195.633240,369.944153 193.144592,369.944153 190.245346,369.964905 
z"/>
<path fill="#67C8CD" opacity="1.000000" stroke="none" 
	d="
M300.053528,236.222366 
	C323.787354,236.018845 347.493805,236.021912 371.678528,236.045212 
	C370.651672,236.506546 369.147614,237.327637 367.641296,237.331757 
	C345.432007,237.392502 323.222412,237.344604 300.553986,237.290634 
	C300.094086,236.980331 300.071106,236.703720 300.053528,236.222366 
z"/>
<path fill="#53A1A5" opacity="1.000000" stroke="none" 
	d="
M376.247345,229.858734 
	C376.463837,229.149887 376.851074,228.177536 377.550140,227.073395 
	C377.380676,227.826157 376.899384,228.710678 376.247345,229.858734 
z"/>
<path fill="#53A1A5" opacity="1.000000" stroke="none" 
	d="
M378.120056,226.644272 
	C378.345520,225.973740 378.773926,225.088165 379.492462,224.084747 
	C379.296051,224.787689 378.809509,225.608459 378.120056,226.644272 
z"/>
<path fill="#53A1A5" opacity="1.000000" stroke="none" 
	d="
M381.188660,221.677109 
	C381.459229,221.338196 381.971863,220.832901 382.701965,220.467468 
	C382.423187,220.908463 381.926910,221.209595 381.188660,221.677109 
z"/>
<path fill="#3B77BA" opacity="1.000000" stroke="none" 
	d="
M121.873245,270.962463 
	C121.587212,268.256500 121.301178,265.550537 121.409096,262.395996 
	C125.882576,257.899170 129.962112,253.850937 134.500610,249.713379 
	C144.011124,249.624069 153.062668,249.624069 162.144974,249.624069 
	C163.403717,238.651840 164.583511,228.367950 166.137939,218.050537 
	C168.285599,216.892975 170.165939,215.905518 171.808563,214.615433 
	C174.916824,212.174225 177.888565,209.559189 181.370850,207.169327 
	C189.080704,207.322281 196.336731,207.322281 204.372070,207.322281 
	C204.372070,197.871094 204.372070,188.941376 204.709091,179.985641 
	C210.126678,175.580200 215.207245,171.200745 220.705124,166.803680 
	C229.787781,169.396591 238.453125,172.007080 247.040909,174.980362 
	C245.299866,177.923889 243.636383,180.504608 241.622726,183.056061 
	C239.947815,182.594391 238.623062,182.161987 237.173935,181.535812 
	C236.791138,181.404465 236.532715,181.466904 236.274307,181.529327 
	C236.501938,181.698975 236.729584,181.868622 236.979721,182.358246 
	C237.354218,183.446136 237.706223,184.214066 237.720856,185.050049 
	C234.949829,187.073135 232.516174,189.028168 229.820038,190.774384 
	C225.414749,185.304214 221.471741,179.799561 214.237198,177.485931 
	C214.237198,188.037643 214.237198,197.962387 213.861664,207.925446 
	C208.633453,209.792557 205.163864,212.918045 203.473816,218.162674 
	C194.539230,218.177856 186.069214,218.177856 176.857407,218.177856 
	C175.510147,227.981232 174.202667,237.495255 172.541275,247.027771 
	C167.793716,251.346771 163.400055,255.647278 158.544357,260.035339 
	C149.214249,260.122894 140.346176,260.122894 130.295807,260.122894 
	C132.716476,269.306061 134.895477,277.572327 136.851929,286.098267 
	C134.000244,288.267151 131.371094,290.176361 128.490082,291.848389 
	C126.116585,284.728271 123.994911,277.845367 121.873245,270.962463 
z"/>
<path fill="#040308" opacity="1.000000" stroke="none" 
	d="
M297.682556,265.117584 
	C297.682556,291.033569 297.682556,316.949554 297.682556,343.592010 
	C272.330841,343.592010 247.146515,343.592010 221.936584,343.365845 
	C222.284454,343.014313 222.657883,342.888916 223.317459,342.810608 
	C224.108505,342.588348 224.613434,342.318970 225.512085,342.074036 
	C230.201813,340.959259 234.676498,340.262451 238.765442,338.610718 
	C271.036407,325.574799 291.339874,302.781982 296.170929,267.518555 
	C296.287842,266.665222 297.161713,265.915588 297.682556,265.117584 
z"/>
<path fill="#020205" opacity="1.000000" stroke="none" 
	d="
M247.118469,174.617584 
	C238.453125,172.007080 229.787781,169.396591 220.660492,166.583130 
	C220.198547,166.380173 219.963135,165.996292 219.963135,165.996292 
	C245.704803,165.996292 271.446472,165.996292 297.765869,165.996292 
	C297.765869,191.529770 297.765869,216.758209 297.477234,242.195282 
	C296.121399,238.602936 295.054230,234.801941 294.039062,230.613220 
	C290.450439,222.345871 286.809875,214.466232 283.091614,206.262695 
	C278.042816,200.185852 273.071716,194.432938 267.949646,188.391663 
	C260.905273,183.608063 254.011871,179.112823 247.118469,174.617584 
z"/>
<path fill="#010202" opacity="1.000000" stroke="none" 
	d="
M121.512772,271.201782 
	C123.994911,277.845367 126.116585,284.728271 128.574982,292.200195 
	C134.352295,300.638855 139.792862,308.488525 145.422653,316.631897 
	C150.761856,321.090149 155.911819,325.254639 161.329727,329.669006 
	C167.468277,332.742645 173.338882,335.566437 179.532272,338.610992 
	C183.929260,340.026947 188.003448,341.222168 191.948456,342.594574 
	C191.692459,343.058228 191.694901,343.343567 191.826599,343.627808 
	C168.384827,343.627808 144.943069,343.627808 121.152290,343.627808 
	C121.152290,319.273499 121.152290,295.357300 121.512772,271.201782 
z"/>
<path fill="#000101" opacity="1.000000" stroke="none" 
	d="
M121.864746,238.028214 
	C121.551819,237.331680 120.966827,236.635712 120.965385,235.938538 
	C120.917755,212.846100 120.925964,189.753540 120.925964,166.844391 
	C121.377426,166.442139 121.619598,166.037460 121.861588,166.037567 
	C146.113708,166.048569 170.365829,166.090195 194.586060,166.549835 
	C194.373978,167.036072 194.193771,167.102386 193.613678,167.144806 
	C184.351120,170.304733 174.905838,172.420288 166.736557,176.875565 
	C143.562622,189.513885 128.801163,209.027496 122.703506,235.226303 
	C122.292458,236.334381 122.078606,237.181290 121.864746,238.028214 
z"/>
<path fill="#62C0D6" opacity="1.000000" stroke="none" 
	d="
M297.755737,264.734955 
	C297.161713,265.915588 296.287842,266.665222 296.170929,267.518555 
	C291.339874,302.781982 271.036407,325.574799 238.765442,338.610718 
	C234.676498,340.262451 230.201813,340.959259 225.226807,342.074463 
	C224.042297,342.288177 223.536804,342.525848 223.031326,342.763519 
	C222.657883,342.888916 222.284454,343.014313 221.610687,343.150726 
	C220.426636,343.405304 219.542908,343.648865 218.343857,343.517151 
	C218.297119,342.377747 218.354202,341.407471 218.866974,340.881348 
	C224.020355,335.593414 229.195312,330.323120 234.511307,325.200562 
	C235.337494,324.404449 236.904160,324.376801 238.047531,324.350525 
	C236.118683,327.736816 238.060776,327.372894 239.846619,326.656860 
	C252.564682,321.557709 262.753082,313.243408 271.704651,301.496613 
	C267.501038,301.496613 264.266266,301.496613 261.064392,301.167908 
	C263.080505,297.833282 265.063721,294.827332 267.488159,291.706177 
	C269.592285,291.567108 271.304108,291.276093 272.908905,291.569885 
	C277.542084,292.418060 279.941254,290.396545 281.108521,286.057037 
	C283.003357,279.012634 285.092529,272.020538 287.453430,264.982666 
	C290.815765,262.969025 293.824310,260.979065 296.832825,258.989136 
	C297.164856,260.776855 297.496887,262.564606 297.755737,264.734955 
M236.502487,328.467224 
	C236.502487,328.467224 236.519653,328.511719 236.502487,328.467224 
z"/>
<path fill="#5BB4D0" opacity="1.000000" stroke="none" 
	d="
M267.046936,291.821350 
	C265.063721,294.827332 263.080505,297.833282 260.600342,301.176453 
	C258.279083,301.514435 256.420013,301.743011 254.637360,301.470917 
	C250.259033,300.802673 248.356415,302.738892 246.769867,306.789215 
	C244.439148,312.739441 241.060577,318.279205 238.128418,323.993805 
	C236.904160,324.376801 235.337494,324.404449 234.511307,325.200562 
	C229.195312,330.323120 224.020355,335.593414 218.866974,340.881348 
	C218.354202,341.407471 218.297119,342.377747 217.995850,343.490814 
	C216.551651,343.857971 215.140121,343.876221 213.241150,343.725494 
	C212.575684,343.455780 212.387909,343.438263 212.190369,343.503967 
	C210.998032,343.561401 209.805695,343.618866 207.820221,343.471008 
	C204.815277,343.230255 202.603470,343.194855 200.093002,343.229126 
	C199.197830,343.178436 198.601334,343.058075 198.076752,342.606079 
	C202.648376,336.670593 206.799835,330.681427 214.030243,328.371521 
	C214.284653,329.782654 214.450302,330.822906 214.714676,332.483154 
	C227.892014,325.888184 233.345734,314.610138 237.408112,301.935669 
	C235.863007,301.597900 234.898178,301.386993 234.007599,300.827576 
	C236.032104,297.591370 237.982391,294.703644 240.158447,291.664459 
	C240.889542,291.007233 241.394882,290.501465 242.243027,289.929565 
	C246.346130,287.244354 250.106430,284.625305 253.901810,282.394226 
	C253.708557,283.920074 253.693756,285.158173 253.214676,286.178223 
	C251.202408,290.462524 252.707642,291.815399 257.125275,291.549316 
	C260.415100,291.351257 263.738464,291.710388 267.046936,291.821350 
z"/>
<path fill="#3B60B2" opacity="1.000000" stroke="none" 
	d="
M194.013550,167.168701 
	C194.193771,167.102386 194.373978,167.036072 194.837006,166.910324 
	C203.094025,166.516098 211.068237,166.181335 219.502808,165.921417 
	C219.963135,165.996292 220.198547,166.380173 220.243179,166.600739 
	C215.207245,171.200745 210.126678,175.580200 204.614410,179.644653 
	C203.386887,178.873734 202.188553,177.829285 201.858841,178.054810 
	C199.169861,179.894119 195.883621,181.479828 194.211044,184.068069 
	C189.418594,191.484161 185.300354,199.335907 180.917023,207.016388 
	C177.888565,209.559189 174.916824,212.174225 171.808563,214.615433 
	C170.165939,215.905518 168.285599,216.892975 165.687012,218.090942 
	C158.577332,218.101028 152.293182,218.037231 146.027069,217.614075 
	C148.048431,214.103882 150.051773,210.953064 152.511841,207.710770 
	C157.467728,207.586456 161.989655,207.799088 166.453583,207.385574 
	C167.983215,207.243866 169.981796,205.861954 170.715698,204.486282 
	C174.622803,197.162659 178.196564,189.661209 182.039474,181.902420 
	C184.420761,178.930710 186.669571,176.295410 188.868988,173.619522 
	C190.615189,171.495010 192.300949,169.320816 194.013550,167.168701 
z"/>
<path fill="#5BB3D3" opacity="1.000000" stroke="none" 
	d="
M296.892090,258.537659 
	C293.824310,260.979065 290.815765,262.969025 287.394226,264.549377 
	C286.903107,262.897583 286.824951,261.655396 286.717255,259.943268 
	C281.235870,259.943268 276.119659,259.943268 271.075134,259.609558 
	C273.112152,256.129486 275.077484,252.983185 277.471680,249.721024 
	C280.847290,249.605164 283.794006,249.605164 287.494537,249.605164 
	C286.711517,244.621063 286.048065,240.398026 285.760956,236.101959 
	C288.753906,234.352936 291.370483,232.676941 293.987091,231.000946 
	C295.054230,234.801941 296.121399,238.602936 297.438599,242.656647 
	C297.442871,247.968307 297.197083,253.027237 296.892090,258.537659 
z"/>
<path fill="#3366AF" opacity="1.000000" stroke="none" 
	d="
M121.860458,238.445236 
	C122.078606,237.181290 122.292458,236.334381 123.051208,235.166016 
	C125.279640,233.824707 126.987694,232.842865 128.640915,231.776047 
	C131.057526,230.216644 133.434769,228.596252 135.797668,227.370865 
	C134.428864,234.060730 132.982773,240.362808 131.879608,246.724335 
	C131.727890,247.599182 133.278931,248.769302 134.041656,249.802704 
	C129.962112,253.850937 125.882576,257.899170 121.452522,261.972595 
	C121.353394,254.285919 121.604774,246.574081 121.860458,238.445236 
z"/>
<path fill="#2F1857" opacity="1.000000" stroke="none" 
	d="
M198.004837,342.937714 
	C198.601334,343.058075 199.197830,343.178436 200.079193,343.359406 
	C200.364075,343.420013 200.353821,343.683319 200.353821,343.683319 
	C197.795715,343.737854 195.237610,343.792389 192.253052,343.737366 
	C191.694901,343.343567 191.692459,343.058228 192.310181,342.568604 
	C194.535675,342.556183 196.270264,342.746948 198.004837,342.937714 
z"/>
<path fill="#5BB3D3" opacity="1.000000" stroke="none" 
	d="
M200.838043,343.688843 
	C200.353821,343.683319 200.364075,343.420013 200.377869,343.289734 
	C202.603470,343.194855 204.815277,343.230255 207.376907,343.393982 
	C205.591919,343.579651 203.457092,343.636993 200.838043,343.688843 
z"/>
<path fill="#5BB3D3" opacity="1.000000" stroke="none" 
	d="
M212.362183,343.574677 
	C212.387909,343.438263 212.575684,343.455780 212.828705,343.619415 
	C212.903748,343.682312 212.533997,343.645386 212.362183,343.574677 
z"/>
<path fill="#030606" opacity="1.000000" stroke="none" 
	d="
M479.060028,252.251312 
	C471.115753,250.747528 466.834015,246.862946 466.011017,240.786438 
	C465.059387,233.760437 469.564667,227.151886 476.212280,225.822723 
	C483.425598,224.380447 490.169403,228.380936 492.161194,235.283722 
	C494.082458,241.942337 490.519073,248.850998 483.816895,251.283722 
	C482.434265,251.785599 480.925415,251.939560 479.060028,252.251312 
z"/>
<path fill="#030606" opacity="1.000000" stroke="none" 
	d="
M446.423645,178.175507 
	C448.514832,184.230011 447.645844,189.356689 443.147430,193.521606 
	C439.288330,197.094711 434.691833,197.931396 429.755768,196.249451 
	C423.922943,194.261978 420.559021,189.048233 420.845581,182.797516 
	C421.115448,176.912201 424.940582,172.289078 430.861542,170.692215 
	C436.993134,169.038544 442.124420,171.424820 446.423645,178.175507 
z"/>
<path fill="#030606" opacity="1.000000" stroke="none" 
	d="
M455.585175,310.765076 
	C458.005463,317.264465 456.652649,322.550934 451.673065,326.759766 
	C447.433014,330.343475 441.543579,330.714661 436.790741,327.958252 
	C431.797058,325.062256 429.212952,319.711945 430.088135,314.080811 
	C430.890594,308.917725 435.300049,304.270447 440.426575,303.184631 
	C446.441528,301.910645 451.409149,304.313538 455.585175,310.765076 
z"/>
<path fill="#030606" opacity="1.000000" stroke="none" 
	d="
M407.666870,256.332825 
	C413.547363,262.489258 413.943207,270.176270 408.953979,275.662170 
	C404.093719,281.006256 396.153259,281.584930 390.573334,277.001678 
	C385.244080,272.624298 384.151154,264.747131 388.084839,259.065796 
	C392.501678,252.686539 399.875885,251.553574 407.666870,256.332825 
z"/>
<path fill="#010202" opacity="1.000000" stroke="none" 
	d="
M249.233398,386.083740 
	C245.586075,387.564178 242.199707,388.731689 238.160843,390.124207 
	C238.160843,382.621796 238.160843,376.564728 238.160843,370.154785 
	C242.348694,369.903473 246.737350,368.915771 249.456284,373.043976 
	C252.109558,377.072540 251.841385,381.518677 249.233398,386.083740 
z"/>
<path fill="#030606" opacity="1.000000" stroke="none" 
	d="
M221.089325,371.964355 
	C221.862396,376.244751 223.266418,380.360077 222.648041,384.144989 
	C221.792648,389.380768 213.640640,391.017181 209.720566,387.235687 
	C206.592728,384.218414 206.131271,376.690186 208.837952,372.837341 
	C211.254700,369.397217 215.883179,368.939270 221.089325,371.964355 
z"/>
<path fill="#030606" opacity="1.000000" stroke="none" 
	d="
M347.590454,378.938446 
	C346.026398,378.968658 344.882965,378.968658 343.456482,378.968658 
	C343.456482,375.986267 343.456482,373.257629 343.456482,370.134033 
	C346.746826,370.336121 350.707336,368.141205 352.398926,372.716888 
	C353.723083,376.298676 351.492432,378.263184 347.590454,378.938446 
z"/>
<path fill="#010202" opacity="1.000000" stroke="none" 
	d="
M134.500610,249.713394 
	C133.278931,248.769302 131.727890,247.599182 131.879608,246.724335 
	C132.982773,240.362808 134.428864,234.060730 135.970032,227.053726 
	C138.119415,222.008087 139.236664,216.677673 146.009048,217.973450 
	C152.293182,218.037231 158.577332,218.101028 165.312378,218.124435 
	C164.583511,228.367950 163.403717,238.651840 162.144974,249.624069 
	C153.062668,249.624069 144.011124,249.624069 134.500610,249.713394 
z"/>
<path fill="#010202" opacity="1.000000" stroke="none" 
	d="
M172.895187,247.009277 
	C174.202667,237.495255 175.510147,227.981232 176.857407,218.177856 
	C186.069214,218.177856 194.539230,218.177856 203.547180,218.616669 
	C204.179398,226.036377 204.273697,233.017258 204.284912,240.454407 
	C204.201828,243.659088 204.201828,246.407501 204.201828,249.188828 
	C199.548370,249.423782 195.748535,249.615646 191.494720,249.695694 
	C186.073395,249.565018 181.097458,249.696365 176.145233,249.413223 
	C175.019760,249.348892 173.976364,247.848618 172.895187,247.009277 
z"/>
<path fill="#020305" opacity="1.000000" stroke="none" 
	d="
M137.074463,285.838623 
	C134.895477,277.572327 132.716476,269.306061 130.295807,260.122894 
	C140.346176,260.122894 149.214249,260.122894 158.942200,260.112183 
	C160.806946,261.199280 162.460464,262.174438 162.695694,263.417877 
	C163.415619,267.223572 163.590668,271.132355 163.923157,275.441345 
	C164.488373,280.905853 165.108078,285.930023 165.793350,291.485840 
	C159.244034,291.485840 153.088684,291.124908 146.998337,291.598999 
	C142.041061,291.984863 138.733307,290.611298 137.074463,285.838623 
z"/>
<path fill="#4589BF" opacity="1.000000" stroke="none" 
	d="
M136.851929,286.098267 
	C138.733307,290.611298 142.041061,291.984863 146.998337,291.598999 
	C153.088684,291.124908 159.244034,291.485840 165.793350,291.485840 
	C165.108078,285.930023 164.488373,280.905853 164.262146,275.371277 
	C167.546616,272.876404 170.437622,270.891907 173.504608,269.253906 
	C174.717484,276.405945 175.754425,283.211456 176.470215,290.095154 
	C172.776352,293.946228 169.403641,297.719116 165.561462,301.511688 
	C159.431458,301.531403 153.770889,301.531403 147.166550,301.531403 
	C149.815643,305.096771 151.581421,307.473267 153.031754,310.022095 
	C150.222015,312.242340 147.727707,314.290253 145.233398,316.338165 
	C139.792862,308.488525 134.352295,300.638855 128.826828,292.437408 
	C131.371094,290.176361 134.000244,288.267151 136.851929,286.098267 
z"/>
<path fill="#4385BF" opacity="1.000000" stroke="none" 
	d="
M204.367996,239.998169 
	C204.273697,233.017258 204.179398,226.036377 204.011749,218.601486 
	C205.163864,212.918045 208.633453,209.792557 214.313599,207.961090 
	C222.393738,207.958389 229.646408,207.958389 238.073456,207.958389 
	C235.123459,201.691711 232.602982,196.337448 230.082520,190.983200 
	C232.516174,189.028168 234.949829,187.073135 237.982666,185.262756 
	C241.806259,192.378021 245.030655,199.348618 248.087891,206.665253 
	C244.949219,210.657043 241.977692,214.302795 238.545013,218.041504 
	C230.424942,218.129913 222.766022,218.125336 214.823975,218.129456 
	C214.400772,218.460037 214.260727,218.781906 214.136993,219.563919 
	C214.090515,225.016006 214.027695,230.007965 213.606247,235.020294 
	C210.287750,236.693161 207.327881,238.345657 204.367996,239.998169 
z"/>
<path fill="#020305" opacity="1.000000" stroke="none" 
	d="
M229.820038,190.774384 
	C232.602982,196.337448 235.123459,201.691711 238.073456,207.958389 
	C229.646408,207.958389 222.393738,207.958389 214.689148,207.922760 
	C214.237198,197.962387 214.237198,188.037643 214.237198,177.485931 
	C221.471741,179.799561 225.414749,185.304214 229.820038,190.774384 
z"/>
<path fill="#000101" opacity="1.000000" stroke="none" 
	d="
M181.370850,207.169342 
	C185.300354,199.335907 189.418594,191.484161 194.211044,184.068069 
	C195.883621,181.479828 199.169861,179.894119 201.858841,178.054810 
	C202.188553,177.829285 203.386887,178.873734 204.277374,179.670654 
	C204.372070,188.941376 204.372070,197.871094 204.372070,207.322281 
	C196.336731,207.322281 189.080704,207.322281 181.370850,207.169342 
z"/>
<path fill="#4385BF" opacity="1.000000" stroke="none" 
	d="
M173.328644,268.907410 
	C170.437622,270.891907 167.546616,272.876404 164.316620,274.930969 
	C163.590668,271.132355 163.415619,267.223572 162.695694,263.417877 
	C162.460464,262.174438 160.806946,261.199280 159.404236,260.024597 
	C163.400055,255.647278 167.793716,251.346771 172.541275,247.027771 
	C173.976364,247.848618 175.019760,249.348892 176.145233,249.413223 
	C181.097458,249.696365 186.073395,249.565018 191.442871,250.046936 
	C189.896805,253.661835 187.948608,256.813629 185.542847,260.049011 
	C181.217438,260.132538 177.349579,260.132538 173.328629,260.132538 
	C173.328629,263.456055 173.328629,266.181732 173.328644,268.907410 
z"/>
<path fill="#020305" opacity="1.000000" stroke="none" 
	d="
M248.255051,206.319214 
	C245.030655,199.348618 241.806259,192.378021 238.320038,185.194702 
	C237.706223,184.214066 237.354218,183.446136 237.064697,182.280731 
	C237.127182,181.883270 237.298325,181.729584 237.298325,181.729584 
	C238.623062,182.161987 239.947815,182.594391 241.873215,183.293915 
	C248.992783,187.934616 255.511673,192.308167 262.261810,196.938812 
	C265.374512,200.267868 268.255951,203.339828 271.137390,206.411789 
	C270.938232,206.937119 270.739044,207.462433 270.539856,207.987762 
	C263.111572,207.431580 255.683319,206.875397 248.255051,206.319214 
z"/>
<path fill="#4385BF" opacity="1.000000" stroke="none" 
	d="
M262.030579,196.681717 
	C255.511673,192.308167 248.992783,187.934616 242.223389,183.323212 
	C243.636383,180.504608 245.299866,177.923889 247.040909,174.980377 
	C254.011871,179.112823 260.905273,183.608063 267.854065,188.731171 
	C265.949768,191.799942 263.990173,194.240829 262.030579,196.681717 
z"/>
<path fill="#020305" opacity="1.000000" stroke="none" 
	d="
M237.042206,181.960770 
	C236.729584,181.868622 236.501938,181.698975 236.274307,181.529327 
	C236.532715,181.466904 236.791138,181.404465 237.173935,181.535812 
	C237.298325,181.729584 237.127182,181.883270 237.042206,181.960770 
z"/>
<path fill="#5BB4D0" opacity="1.000000" stroke="none" 
	d="
M223.317459,342.810608 
	C223.536804,342.525848 224.042297,342.288177 224.833069,342.050049 
	C224.613434,342.318970 224.108505,342.588348 223.317459,342.810608 
z"/>
<path fill="#4C96C8" opacity="1.000000" stroke="none" 
	d="
M262.261810,196.938812 
	C263.990173,194.240829 265.949768,191.799942 268.005005,189.019531 
	C273.071716,194.432938 278.042816,200.185852 282.880432,206.551437 
	C279.499847,210.756500 276.252716,214.348907 272.544708,218.035034 
	C265.557281,218.128738 259.030701,218.128738 252.464203,218.128738 
	C253.000626,221.816162 253.450485,224.908646 253.561646,228.069550 
	C250.221924,230.092255 247.220932,232.046539 244.115967,233.596848 
	C243.302094,229.197296 242.765350,225.158310 241.781281,221.231445 
	C241.468597,219.983673 239.964874,219.034393 239.006165,217.948532 
	C241.977692,214.302795 244.949219,210.657043 248.087891,206.665253 
	C255.683319,206.875397 263.111572,207.431580 270.539856,207.987762 
	C270.739044,207.462433 270.938232,206.937119 271.137390,206.411789 
	C268.255951,203.339828 265.374512,200.267868 262.261810,196.938812 
z"/>
<path fill="#53A5CD" opacity="1.000000" stroke="none" 
	d="
M273.005585,217.941315 
	C276.252716,214.348907 279.499847,210.756500 282.958130,206.875336 
	C286.809875,214.466232 290.450439,222.345871 294.039062,230.613220 
	C291.370483,232.676941 288.753906,234.352936 285.611115,235.785370 
	C283.824829,231.660858 282.402496,227.823395 281.347839,223.887390 
	C280.167145,219.480957 277.690674,217.254364 273.005585,217.941315 
z"/>
<path fill="#5BB3D3" opacity="1.000000" stroke="none" 
	d="
M198.076752,342.606079 
	C196.270264,342.746948 194.535675,342.556183 192.439362,342.391388 
	C188.003448,341.222168 183.929260,340.026947 179.882874,338.435425 
	C181.404602,336.728577 182.877777,335.393402 184.396667,334.112457 
	C187.650574,331.368347 190.928101,328.652252 194.499176,326.086121 
	C197.626785,328.298553 200.451172,330.349548 204.392700,333.211792 
	C204.392700,326.944702 204.392700,322.478302 204.728851,317.988281 
	C208.021698,315.978149 210.978378,313.991638 214.018326,312.465210 
	C214.048218,317.950439 213.994843,322.975525 213.941467,328.000641 
	C206.799835,330.681427 202.648376,336.670593 198.076752,342.606079 
z"/>
<path fill="#53A5CD" opacity="1.000000" stroke="none" 
	d="
M194.195953,325.924652 
	C190.928101,328.652252 187.650574,331.368347 184.396667,334.112457 
	C182.877777,335.393402 181.404602,336.728577 179.560089,338.214722 
	C173.338882,335.566437 167.468277,332.742645 161.693542,329.495544 
	C164.609955,327.008759 167.430481,324.945282 170.595093,322.982880 
	C174.130676,324.523590 177.322174,325.963226 180.513672,327.402863 
	C180.686676,327.060913 180.859680,326.718964 181.032684,326.377014 
	C179.668457,323.630524 178.304245,320.884064 177.123444,317.850586 
	C179.817093,315.713287 182.327301,313.862976 185.054916,312.287720 
	C188.246857,317.016693 191.221405,321.470673 194.195953,325.924652 
z"/>
<path fill="#4D99C6" opacity="1.000000" stroke="none" 
	d="
M170.251022,322.881805 
	C167.430481,324.945282 164.609955,327.008759 161.425598,329.245667 
	C155.911819,325.254639 150.761856,321.090149 145.422638,316.631897 
	C147.727707,314.290253 150.222015,312.242340 153.312027,310.189911 
	C159.355484,314.417511 164.803253,318.649658 170.251022,322.881805 
z"/>
<path fill="#2F5FAF" opacity="1.000000" stroke="none" 
	d="
M146.027069,217.614075 
	C139.236664,216.677673 138.119415,222.008087 136.001160,226.684723 
	C133.434769,228.596252 131.057526,230.216644 128.640915,231.776047 
	C126.987694,232.842865 125.279640,233.824707 123.248398,234.904846 
	C128.801163,209.027496 143.562622,189.513885 166.736557,176.875565 
	C174.905838,172.420288 184.351120,170.304733 193.613678,167.144806 
	C192.300949,169.320816 190.615189,171.495010 188.868988,173.619522 
	C186.669571,176.295410 184.420761,178.930710 181.668243,181.850220 
	C174.752243,185.476685 167.951691,188.253006 162.090515,192.367477 
	C156.699417,196.151947 152.319092,201.376312 146.731232,206.691406 
	C149.526245,207.274582 150.790665,207.538406 152.055115,207.802246 
	C150.051773,210.953064 148.048431,214.103882 146.027069,217.614075 
z"/>
<path fill="#020305" opacity="1.000000" stroke="none" 
	d="
M271.003448,259.943268 
	C276.119659,259.943268 281.235870,259.943268 286.717255,259.943268 
	C286.824951,261.655396 286.903107,262.897583 287.040466,264.573059 
	C285.092529,272.020538 283.003357,279.012634 281.108521,286.057037 
	C279.941254,290.396545 277.542084,292.418060 272.908905,291.569885 
	C271.304108,291.276093 269.592285,291.567108 267.488129,291.706177 
	C263.738464,291.710388 260.415100,291.351257 257.125275,291.549316 
	C252.707642,291.815399 251.202408,290.462524 253.214676,286.178223 
	C253.693756,285.158173 253.708557,283.920074 254.024582,281.991302 
	C254.866043,274.258362 255.619812,267.316376 256.420410,259.943268 
	C261.513275,259.943268 266.258362,259.943268 271.003448,259.943268 
z"/>
<path fill="#030606" opacity="1.000000" stroke="none" 
	d="
M238.047546,324.350525 
	C241.060577,318.279205 244.439148,312.739441 246.769867,306.789215 
	C248.356415,302.738892 250.259033,300.802673 254.637360,301.470917 
	C256.420013,301.743011 258.279083,301.514435 260.567444,301.505127 
	C264.266266,301.496613 267.501038,301.496613 271.704651,301.496613 
	C262.753082,313.243408 252.564682,321.557709 239.846619,326.656860 
	C238.060776,327.372894 236.118683,327.736816 238.047546,324.350525 
z"/>
<path fill="#5BB4D0" opacity="1.000000" stroke="none" 
	d="
M236.511078,328.489471 
	C236.519653,328.511719 236.502487,328.467224 236.511078,328.489471 
z"/>
<path fill="#010304" opacity="1.000000" stroke="none" 
	d="
M241.900223,289.995728 
	C241.394882,290.501465 240.889542,291.007233 239.708679,291.537903 
	C231.936569,291.549042 224.835922,291.391174 217.745453,291.592438 
	C214.907959,291.672974 213.874512,290.624298 214.047760,287.544617 
	C214.142197,278.218414 214.142197,269.353088 214.142197,259.953033 
	C224.212875,259.953033 233.609024,259.953033 243.430573,260.053711 
	C244.296738,261.545746 245.240967,262.991913 245.096466,264.319611 
	C244.163513,272.892731 242.992905,281.440002 241.900223,289.995728 
z"/>
<path fill="#56A9CE" opacity="1.000000" stroke="none" 
	d="
M242.243027,289.929565 
	C242.992905,281.440002 244.163513,272.892731 245.096466,264.319611 
	C245.240967,262.991913 244.296738,261.545746 243.499115,259.720520 
	C247.345795,255.531250 251.549347,251.775833 255.968628,248.431335 
	C257.927460,249.063583 259.665833,249.420090 261.414520,249.480865 
	C266.621796,249.661865 271.833099,249.726669 277.042847,249.836884 
	C275.077484,252.983185 273.112152,256.129486 271.075134,259.609558 
	C266.258362,259.943268 261.513275,259.943268 256.420410,259.943268 
	C255.619812,267.316376 254.866043,274.258362 253.989487,281.603271 
	C250.106430,284.625305 246.346130,287.244354 242.243027,289.929565 
z"/>
<path fill="#030606" opacity="1.000000" stroke="none" 
	d="
M214.030243,328.371521 
	C213.994843,322.975525 214.048218,317.950439 214.110870,312.016907 
	C214.120132,308.035950 214.120132,304.963409 214.120132,301.176086 
	C221.149765,301.176086 227.541550,301.176086 233.933350,301.176086 
	C234.898178,301.386993 235.863007,301.597900 237.408112,301.935669 
	C233.345734,314.610138 227.892014,325.888184 214.714676,332.483154 
	C214.450302,330.822906 214.284653,329.782654 214.030243,328.371521 
z"/>
<path fill="#56A9CE" opacity="1.000000" stroke="none" 
	d="
M234.007599,300.827576 
	C227.541550,301.176086 221.149765,301.176086 214.120132,301.176086 
	C214.120132,304.963409 214.120132,308.035950 214.027588,311.556824 
	C210.978378,313.991638 208.021698,315.978149 204.633789,317.528503 
	C204.192184,313.010834 204.032150,308.922211 204.226456,304.850525 
	C204.346786,302.329041 203.363449,301.261902 201.044510,300.826538 
	C203.683853,294.557129 208.507156,290.960175 213.953308,288.005463 
	C213.874512,290.624298 214.907959,291.672974 217.745453,291.592438 
	C224.835922,291.391174 231.936569,291.549042 239.482910,291.689362 
	C237.982391,294.703644 236.032104,297.591370 234.007599,300.827576 
z"/>
<path fill="#010304" opacity="1.000000" stroke="none" 
	d="
M152.511826,207.710754 
	C150.790665,207.538406 149.526245,207.274582 146.731232,206.691406 
	C152.319092,201.376312 156.699417,196.151947 162.090515,192.367477 
	C167.951691,188.253006 174.752243,185.476685 181.514435,182.169113 
	C178.196564,189.661209 174.622803,197.162659 170.715698,204.486282 
	C169.981796,205.861954 167.983215,207.243866 166.453583,207.385574 
	C161.989655,207.799088 157.467728,207.586456 152.511826,207.710754 
z"/>
<path fill="#010304" opacity="1.000000" stroke="none" 
	d="
M277.471680,249.721024 
	C271.833099,249.726669 266.621796,249.661865 261.414520,249.480865 
	C259.665833,249.420090 257.927460,249.063583 256.032471,247.989731 
	C255.220535,240.758514 254.560440,234.379822 253.900360,228.001129 
	C253.450485,224.908646 253.000626,221.816162 252.464203,218.128738 
	C259.030701,218.128738 265.557281,218.128738 272.544708,218.035034 
	C277.690674,217.254364 280.167145,219.480957 281.347839,223.887390 
	C282.402496,227.823395 283.824829,231.660858 285.234772,235.858398 
	C286.048065,240.398026 286.711517,244.621063 287.494537,249.605164 
	C283.794006,249.605164 280.847290,249.605164 277.471680,249.721024 
z"/>
<path fill="#4589BF" opacity="1.000000" stroke="none" 
	d="
M186.000397,259.965454 
	C187.948608,256.813629 189.896805,253.661835 191.896851,250.158752 
	C195.748535,249.615646 199.548370,249.423782 204.201828,249.188828 
	C204.201828,246.407501 204.201828,243.659088 204.284912,240.454422 
	C207.327881,238.345657 210.287750,236.693161 213.687546,235.479095 
	C214.146439,239.038834 213.977112,242.177567 214.263702,245.274109 
	C214.407303,246.825638 215.381866,248.300247 215.963135,250.181717 
	C213.892273,256.051483 209.850021,259.342468 204.005478,260.726135 
	C197.777878,260.283539 191.889145,260.124481 186.000397,259.965454 
z"/>
<path fill="#4D99C6" opacity="1.000000" stroke="none" 
	d="
M204.344330,261.009674 
	C209.850021,259.342468 213.892273,256.051483 216.423737,250.079193 
	C226.250610,249.604568 235.599457,249.604568 245.467300,249.604568 
	C245.004715,243.817932 244.612320,238.909378 244.219925,234.000824 
	C247.220932,232.046539 250.221924,230.092255 253.561646,228.069550 
	C254.560440,234.379822 255.220535,240.758514 255.816757,247.578812 
	C251.549347,251.775833 247.345795,255.531250 243.073730,259.619843 
	C233.609024,259.953033 224.212875,259.953033 214.142197,259.953033 
	C214.142197,269.353088 214.142197,278.218414 214.047760,287.544617 
	C208.507156,290.960175 203.683853,294.557129 200.657669,300.961731 
	C194.038635,301.456604 187.865341,301.456604 180.960175,301.456604 
	C182.491455,305.625519 183.664490,308.819122 184.837524,312.012695 
	C182.327301,313.862976 179.817093,315.713287 176.859024,317.618469 
	C174.608765,313.412811 172.613251,309.220459 171.076004,304.866333 
	C170.146500,302.233612 168.793457,301.009125 166.030914,301.491974 
	C169.403641,297.719116 172.776352,293.946228 176.661484,290.443481 
	C186.031815,290.713562 194.889755,290.713562 204.344330,290.713562 
	C204.344330,280.939392 204.344330,270.974518 204.344330,261.009674 
z"/>
<path fill="#010202" opacity="1.000000" stroke="none" 
	d="
M204.005478,260.726135 
	C204.344330,270.974518 204.344330,280.939392 204.344330,290.713562 
	C194.889755,290.713562 186.031815,290.713562 176.982620,290.365265 
	C175.754425,283.211456 174.717484,276.405945 173.504593,269.253906 
	C173.328629,266.181732 173.328629,263.456055 173.328629,260.132538 
	C177.349579,260.132538 181.217438,260.132538 185.542847,260.049011 
	C191.889145,260.124481 197.777878,260.283539 204.005478,260.726135 
z"/>
<path fill="#020305" opacity="1.000000" stroke="none" 
	d="
M165.561462,301.511688 
	C168.793457,301.009125 170.146500,302.233612 171.076004,304.866333 
	C172.613251,309.220459 174.608765,313.412811 176.675598,317.905457 
	C178.304245,320.884064 179.668457,323.630524 181.032684,326.377014 
	C180.859680,326.718964 180.686676,327.060913 180.513672,327.402863 
	C177.322174,325.963226 174.130676,324.523590 170.595093,322.982880 
	C164.803253,318.649658 159.355484,314.417511 153.627457,310.017578 
	C151.581421,307.473267 149.815643,305.096771 147.166550,301.531403 
	C153.770889,301.531403 159.431458,301.531403 165.561462,301.511688 
z"/>
<path fill="#010304" opacity="1.000000" stroke="none" 
	d="
M244.115967,233.596848 
	C244.612320,238.909378 245.004715,243.817932 245.467300,249.604568 
	C235.599457,249.604568 226.250610,249.604568 216.441193,249.707092 
	C215.381866,248.300247 214.407303,246.825638 214.263702,245.274109 
	C213.977112,242.177567 214.146439,239.038834 214.046173,235.458725 
	C214.027695,230.007965 214.090515,225.016006 214.299683,219.398468 
	C214.664566,218.553680 214.884933,218.336304 215.107117,218.120758 
	C222.766022,218.125336 230.424942,218.129913 238.545013,218.041504 
	C239.964874,219.034393 241.468597,219.983673 241.781281,221.231445 
	C242.765350,225.158310 243.302094,229.197296 244.115967,233.596848 
z"/>
<path fill="#2B556F" opacity="1.000000" stroke="none" 
	d="
M214.823975,218.129456 
	C214.884933,218.336304 214.664566,218.553680 214.283356,218.938324 
	C214.260727,218.781906 214.400772,218.460037 214.823975,218.129456 
z"/>
<path fill="#010202" opacity="1.000000" stroke="none" 
	d="
M185.054916,312.287720 
	C183.664490,308.819122 182.491455,305.625519 180.960175,301.456604 
	C187.865341,301.456604 194.038635,301.456604 200.598770,301.321411 
	C203.363449,301.261902 204.346786,302.329041 204.226456,304.850525 
	C204.032150,308.922211 204.192184,313.010834 204.297638,317.552094 
	C204.392700,322.478302 204.392700,326.944702 204.392700,333.211792 
	C200.451172,330.349548 197.626785,328.298553 194.499176,326.086121 
	C191.221405,321.470673 188.246857,317.016693 185.054916,312.287720 
z"/>
</svg>